<svg width="14" height="12" viewBox="0 0 14 12" fill="none" xmlns="http://www.w3.org/2000/svg">
<path d="M6.02765 0.450778C6.13598 0.347131 6.2807 0.290211 6.43061 0.292291C6.58053 0.294371 6.72361 0.355285 6.82903 0.461897C6.93444 0.568508 6.99373 0.712278 6.99411 0.862203C6.9945 1.01213 6.93594 1.1562 6.83108 1.26335L2.61622 5.42849H12.7162C12.8678 5.42849 13.0131 5.4887 13.1203 5.59586C13.2274 5.70302 13.2876 5.84837 13.2876 5.99992C13.2876 6.15147 13.2274 6.29682 13.1203 6.40398C13.0131 6.51114 12.8678 6.57135 12.7162 6.57135H2.61736L6.83108 10.7348C6.93891 10.8413 7 10.9863 7.00091 11.1379C7.00182 11.2895 6.94248 11.4352 6.83593 11.5431C6.72939 11.6509 6.58438 11.712 6.4328 11.7129C6.28121 11.7138 6.13548 11.6545 6.02765 11.5479L0.926506 6.50735C0.859298 6.44092 0.80594 6.36181 0.769523 6.27461C0.733107 6.18741 0.714355 6.09385 0.714355 5.99935C0.714355 5.90485 0.733107 5.81129 0.769523 5.72409C0.80594 5.63689 0.859298 5.55778 0.926506 5.49135L6.02765 0.450778Z" fill="#3C4252"/>
</svg>
