<svg width="12" height="12" viewBox="0 0 12 12" fill="none" xmlns="http://www.w3.org/2000/svg">
<path d="M0.396914 0.553943L0.469914 0.469943C0.596902 0.342925 0.765256 0.265697 0.944365 0.252301C1.12347 0.238904 1.30144 0.290229 1.44591 0.396943L1.52991 0.469943L5.99991 4.93894L10.4699 0.468943C10.5391 0.397344 10.6219 0.340247 10.7134 0.300984C10.805 0.261721 10.9034 0.241078 11.003 0.24026C11.1026 0.239442 11.2013 0.258465 11.2935 0.296219C11.3856 0.333973 11.4693 0.389702 11.5397 0.460154C11.6101 0.530607 11.6657 0.614372 11.7034 0.706561C11.7411 0.798751 11.76 0.897519 11.7591 0.997103C11.7582 1.09669 11.7375 1.19509 11.6981 1.28658C11.6588 1.37806 11.6016 1.46079 11.5299 1.52994L7.06091 5.99994L11.5309 10.4699C11.6578 10.5971 11.7348 10.7655 11.748 10.9446C11.7613 11.1237 11.7098 11.3016 11.6029 11.4459L11.5299 11.5299C11.4029 11.657 11.2346 11.7342 11.0555 11.7476C10.8764 11.761 10.6984 11.7097 10.5539 11.6029L10.4699 11.5299L5.99991 7.06094L1.52991 11.5309C1.3884 11.6675 1.19891 11.743 1.00226 11.7412C0.805615 11.7394 0.617542 11.6604 0.47855 11.5213C0.339559 11.3822 0.260771 11.194 0.259156 10.9974C0.25754 10.8007 0.333227 10.6113 0.469914 10.4699L4.93891 5.99994L0.468914 1.52994C0.342046 1.40283 0.265002 1.23441 0.251789 1.0553C0.238577 0.876199 0.290072 0.698298 0.396914 0.553943L0.469914 0.469943L0.396914 0.553943Z" fill="#3C4252"/>
</svg>
