<svg width="18" height="20" viewBox="0 0 18 20" fill="none" xmlns="http://www.w3.org/2000/svg">
<path d="M8.99977 0V6C8.99879 6.50391 9.18808 6.98962 9.52977 7.36C9.87444 7.72913 10.346 7.95419 10.8498 7.99H16.9998V8.66C17.2774 8.78668 17.5164 8.98497 17.6922 9.23451C17.8679 9.48406 17.9741 9.77587 17.9998 10.08V15.74C18.0007 16.0452 17.9214 16.3452 17.7698 16.61C17.6207 16.8791 17.3989 17.1009 17.1298 17.25L16.9998 17.32V18C17.0007 18.5039 16.8115 18.9896 16.4698 19.36C16.1267 19.7328 15.6549 19.9616 15.1498 20H2.99977C2.49585 20.001 2.01014 19.8117 1.63977 19.47C1.26694 19.1269 1.03821 18.6552 0.999766 18.15V17.33C0.725235 17.1969 0.48812 16.9976 0.309766 16.75C0.137214 16.5015 0.0336924 16.2116 0.00976562 15.91V10.25C0.0102283 9.94424 0.0907939 9.64394 0.243438 9.379C0.396081 9.11407 0.615475 8.89375 0.879766 8.74L0.999766 8.67V2C0.998793 1.49609 1.18808 1.01038 1.52977 0.64C1.87282 0.267176 2.34459 0.0384414 2.84977 0H8.99977ZM16.2498 10H1.74977C1.71656 9.99858 1.68342 10.0041 1.65245 10.0161C1.62147 10.0282 1.59335 10.0466 1.56984 10.0701C1.54634 10.0936 1.52797 10.1217 1.51591 10.1527C1.50385 10.1837 1.49835 10.2168 1.49977 10.25V15.75C1.49977 15.8163 1.5261 15.8799 1.57299 15.9268C1.61987 15.9737 1.68346 16 1.74977 16H16.2498C16.283 16.0014 16.3161 15.9959 16.3471 15.9839C16.3781 15.9718 16.4062 15.9534 16.4297 15.9299C16.4532 15.9064 16.4716 15.8783 16.4836 15.8473C16.4957 15.8163 16.5012 15.7832 16.4998 15.75V10.25C16.5012 10.2168 16.4957 10.1837 16.4836 10.1527C16.4716 10.1217 16.4532 10.0936 16.4297 10.0701C16.4062 10.0466 16.3781 10.0282 16.3471 10.0161C16.3161 10.0041 16.283 9.99858 16.2498 10ZM10.4998 0.5L16.4998 6.5H10.9998C10.868 6.49744 10.7423 6.44394 10.649 6.35072C10.5558 6.2575 10.5023 6.13181 10.4998 6V0.5Z" fill="#305FF5"/>
</svg>
