<svg width="18" height="20" viewBox="0 0 18 20" fill="none" xmlns="http://www.w3.org/2000/svg">
<g clip-path="url(#clip0)">
<path d="M8.99977 0V6C8.99879 6.50391 9.18808 6.98962 9.52977 7.36C9.87444 7.72913 10.346 7.95419 10.8498 7.99H16.9998V8.66C17.2774 8.78668 17.5164 8.98497 17.6922 9.23451C17.8679 9.48406 17.9741 9.77587 17.9998 10.08V15.74C18.0007 16.0452 17.9214 16.3452 17.7698 16.61C17.6207 16.8791 17.3989 17.1009 17.1298 17.25L16.9998 17.32V18C17.0007 18.5039 16.8115 18.9896 16.4698 19.36C16.1267 19.7328 15.6549 19.9616 15.1498 20H2.99977C2.49585 20.001 2.01014 19.8117 1.63977 19.47C1.26694 19.1269 1.03821 18.6552 0.999766 18.15V17.33C0.725235 17.1969 0.48812 16.9976 0.309766 16.75C0.137214 16.5015 0.0336924 16.2116 0.00976562 15.91V10.25C0.0102283 9.94424 0.0907939 9.64394 0.243438 9.379C0.396081 9.11407 0.615475 8.89375 0.879766 8.74L0.999766 8.67V2C0.998793 1.49609 1.18808 1.01038 1.52977 0.64C1.87282 0.267176 2.34459 0.0384414 2.84977 0H8.99977ZM16.2498 10H1.74977C1.71656 9.99858 1.68342 10.0041 1.65245 10.0161C1.62147 10.0282 1.59335 10.0466 1.56984 10.0701C1.54634 10.0936 1.52797 10.1217 1.51591 10.1527C1.50385 10.1837 1.49835 10.2168 1.49977 10.25V15.75C1.49977 15.8163 1.5261 15.8799 1.57299 15.9268C1.61987 15.9737 1.68346 16 1.74977 16H16.2498C16.283 16.0014 16.3161 15.9959 16.3471 15.9839C16.3781 15.9718 16.4062 15.9534 16.4297 15.9299C16.4532 15.9064 16.4716 15.8783 16.4836 15.8473C16.4957 15.8163 16.5012 15.7832 16.4998 15.75V10.25C16.5012 10.2168 16.4957 10.1837 16.4836 10.1527C16.4716 10.1217 16.4532 10.0936 16.4297 10.0701C16.4062 10.0466 16.3781 10.0282 16.3471 10.0161C16.3161 10.0041 16.283 9.99858 16.2498 10ZM10.4998 0.5L16.4998 6.5H10.9998C10.868 6.49744 10.7423 6.44394 10.649 6.35072C10.5558 6.2575 10.5023 6.13181 10.4998 6V0.5Z" fill="#305FF5"/>
<path d="M2.72083 11.6399C2.72081 11.5852 2.73174 11.5311 2.75297 11.4807C2.77419 11.4303 2.80529 11.3846 2.84443 11.3464C2.88357 11.3082 2.92995 11.2782 2.98086 11.2582C3.03176 11.2382 3.08615 11.2286 3.14083 11.2299H4.19083C4.44762 11.2135 4.70505 11.2499 4.94718 11.337C5.1893 11.4241 5.41097 11.56 5.59846 11.7363C5.78595 11.9125 5.93526 12.1253 6.03716 12.3616C6.13905 12.5979 6.19135 12.8526 6.19083 13.1099C6.19126 13.3676 6.13898 13.6227 6.0372 13.8595C5.93541 14.0963 5.78628 14.3098 5.59895 14.4868C5.41163 14.6638 5.19008 14.8006 4.94792 14.8889C4.70577 14.9771 4.44812 15.0149 4.19083 14.9999H3.14083C3.0853 15.0013 3.03007 14.9914 2.97849 14.9707C2.92692 14.9501 2.88007 14.9192 2.84079 14.8799C2.80151 14.8407 2.77063 14.7938 2.75 14.7422C2.72938 14.6907 2.71946 14.6354 2.72083 14.5799V11.6399ZM4.19083 14.2599C4.34231 14.2701 4.49423 14.2479 4.63649 14.1949C4.77874 14.1418 4.90809 14.0591 5.01591 13.9523C5.12374 13.8454 5.20759 13.7168 5.26189 13.575C5.31618 13.4332 5.33968 13.2815 5.33083 13.1299C5.33808 12.9787 5.31348 12.8277 5.25861 12.6867C5.20375 12.5456 5.11986 12.4177 5.01237 12.3111C4.90488 12.2046 4.77621 12.1218 4.63468 12.0682C4.49315 12.0146 4.34193 11.9913 4.19083 11.9999H3.55083V14.2799L4.19083 14.2599Z" fill="#305FF5"/>
<path d="M6.93948 13.1298C6.93948 12.5994 7.1502 12.0907 7.52527 11.7156C7.90034 11.3405 8.40905 11.1298 8.93948 11.1298C9.2001 11.1218 9.45966 11.1663 9.70267 11.2608C9.94568 11.3553 10.1671 11.4978 10.3538 11.6799C10.5405 11.8619 10.6886 12.0797 10.7892 12.3202C10.8898 12.5607 10.941 12.8191 10.9395 13.0798C10.9395 13.6103 10.7288 14.119 10.3537 14.494C9.97863 14.8691 9.46992 15.0798 8.93948 15.0798C8.67887 15.0879 8.41931 15.0434 8.1763 14.9488C7.93329 14.8543 7.71183 14.7118 7.52514 14.5298C7.33845 14.3478 7.19037 14.13 7.08975 13.8895C6.98912 13.6489 6.93802 13.3906 6.93948 13.1298ZM10.0895 13.1298C10.0895 12.8275 9.96938 12.5375 9.75559 12.3237C9.54179 12.1099 9.25183 11.9898 8.94948 11.9898C8.64714 11.9898 8.35717 12.1099 8.14338 12.3237C7.92959 12.5375 7.80948 12.8275 7.80948 13.1298C7.80529 13.2868 7.83328 13.4429 7.89173 13.5887C7.95018 13.7344 8.03785 13.8666 8.14934 13.9771C8.26083 14.0877 8.39377 14.1742 8.53998 14.2315C8.6862 14.2887 8.84257 14.3154 8.99948 14.3098C9.14878 14.3047 9.29558 14.27 9.43139 14.2078C9.5672 14.1455 9.68931 14.057 9.79068 13.9473C9.89204 13.8375 9.97064 13.7088 10.0219 13.5685C10.0732 13.4282 10.0962 13.2791 10.0895 13.1298Z" fill="#305FF5"/>
<path d="M11.6995 13.1302C11.7008 12.7561 11.807 12.39 12.0059 12.0732C12.2049 11.7565 12.4887 11.502 12.8251 11.3384C13.1615 11.1749 13.537 11.109 13.909 11.1482C14.281 11.1874 14.6345 11.3301 14.9295 11.5602C14.9824 11.5973 15.0255 11.6468 15.0551 11.7042C15.0847 11.7617 15.0999 11.8255 15.0995 11.8902C15.0952 11.9648 15.071 12.0369 15.0295 12.0991C14.988 12.1613 14.9307 12.2113 14.8634 12.2439C14.7961 12.2765 14.7214 12.2906 14.6468 12.2847C14.5723 12.2787 14.5007 12.253 14.4395 12.2102C14.2198 12.0372 13.949 11.9423 13.6695 11.9402C13.5189 11.9426 13.3703 11.9755 13.2327 12.0366C13.0951 12.0978 12.9713 12.1862 12.8686 12.2963C12.7659 12.4065 12.6865 12.5362 12.6351 12.6778C12.5837 12.8193 12.5614 12.9698 12.5695 13.1202C12.5614 13.271 12.5837 13.422 12.6349 13.5641C12.6862 13.7062 12.7655 13.8366 12.8681 13.9476C12.9706 14.0585 13.0944 14.1478 13.232 14.21C13.3697 14.2723 13.5184 14.3064 13.6695 14.3102C13.9706 14.3157 14.263 14.2087 14.4895 14.0102C14.5601 13.9526 14.6483 13.9208 14.7395 13.9202C14.8402 13.9202 14.9369 13.9602 15.0082 14.0315C15.0794 14.1027 15.1195 14.1994 15.1195 14.3002C15.1196 14.3574 15.1071 14.4139 15.0829 14.4658C15.0587 14.5176 15.0234 14.5635 14.9795 14.6002C14.6114 14.926 14.1304 15.0947 13.6395 15.0702C13.3836 15.0742 13.1295 15.0268 12.8923 14.9307C12.6551 14.8347 12.4396 14.6919 12.2586 14.511C12.0777 14.33 11.9349 14.1145 11.8389 13.8773C11.7428 13.6401 11.6954 13.386 11.6995 13.1302Z" fill="#305FF5"/>
</g>
<defs>
<clipPath id="clip0">
<rect width="18" height="20" fill="white"/>
</clipPath>
</defs>
</svg>
