<svg width="24" height="24" viewBox="0 0 24 24" fill="none" xmlns="http://www.w3.org/2000/svg">
<path fill-rule="evenodd" clip-rule="evenodd" d="M11.5714 1.71436H5.14287L5.0143 1.71864C4.12802 1.78464 3.42859 2.52521 3.42859 3.42864V20.5715L3.43287 20.7001C3.46551 21.1313 3.65982 21.5342 3.9769 21.8283C4.29399 22.1223 4.71044 22.2857 5.14287 22.2858H18.8572L18.9857 22.2815C19.4169 22.2489 19.8199 22.0546 20.1139 21.7375C20.408 21.4204 20.5714 21.0039 20.5714 20.5715V10.7144L20.5646 10.6372C20.5465 10.5385 20.4944 10.4493 20.4174 10.3851C20.3403 10.3209 20.2432 10.2858 20.1429 10.2858H13.7143L13.5857 10.2815C12.6994 10.2155 12 9.47493 12 8.5715V2.14293L11.9932 2.06578C11.9751 1.96711 11.923 1.8779 11.846 1.81369C11.7689 1.74947 11.6718 1.71432 11.5714 1.71436ZM13.2857 2.45321V8.5715L13.2926 8.64864C13.3106 8.74731 13.3627 8.83652 13.4398 8.90074C13.5169 8.96495 13.614 9.0001 13.7143 9.00007H19.8326L19.872 8.99407C19.893 8.98732 19.9119 8.97529 19.9269 8.95913C19.9419 8.94297 19.9525 8.92322 19.9576 8.90179C19.9628 8.88036 19.9624 8.85796 19.9564 8.83674C19.9504 8.81553 19.9391 8.79621 19.9234 8.78064L13.5052 2.36236L13.4726 2.33836C13.453 2.32838 13.4311 2.3236 13.4091 2.32449C13.3871 2.32538 13.3657 2.3319 13.347 2.34342C13.3282 2.35495 13.3127 2.3711 13.302 2.39032C13.2913 2.40955 13.2857 2.4312 13.2857 2.45321ZM14.7003 19.4056H9.29715L9.25632 19.4084C9.18097 19.4188 9.11236 19.4574 9.06436 19.5164C9.01635 19.5754 8.99254 19.6504 8.99772 19.7263C9.00291 19.8022 9.03671 19.8733 9.09229 19.9252C9.14787 19.9771 9.22109 20.006 9.29715 20.0061H14.7003L14.7407 20.0033C14.816 19.9929 14.8846 19.9543 14.9326 19.8954C14.9806 19.8364 15.0045 19.7614 14.9993 19.6856C14.9942 19.6097 14.9605 19.5386 14.905 19.4867C14.8495 19.4347 14.7763 19.4058 14.7003 19.4056ZM11.7153 12.1175L9.71466 14.1178V14.1174L9.68143 14.1554C9.62169 14.2324 9.5921 14.3286 9.59822 14.4259C9.60433 14.5232 9.64573 14.6149 9.71466 14.6838L9.75228 14.717C9.8293 14.7768 9.92547 14.8063 10.0228 14.8002C10.12 14.7941 10.2117 14.7527 10.2807 14.6838L11.5988 13.3652L11.5984 18.4049L11.6016 18.4517C11.6131 18.5491 11.6599 18.6389 11.7332 18.704C11.8064 18.7692 11.9011 18.8052 11.9991 18.8052L12.0456 18.8024C12.143 18.791 12.2329 18.7442 12.2981 18.671C12.3633 18.5977 12.3994 18.503 12.3994 18.4049V13.3664L13.718 14.6838L13.7556 14.717C13.836 14.78 13.9375 14.8098 14.0392 14.8004C14.1408 14.791 14.2351 14.743 14.3026 14.6664C14.3701 14.5898 14.4058 14.4903 14.4023 14.3882C14.3989 14.2861 14.3565 14.1892 14.284 14.1174L12.2809 12.1171L12.2437 12.0839C12.1666 12.0242 12.0704 11.9947 11.9732 12.0009C11.8759 12.0071 11.7842 12.0485 11.7153 12.1175Z" fill="#C0C4CB"/>
</svg>
