<svg width="12" height="12" viewBox="0 0 12 12" fill="none" xmlns="http://www.w3.org/2000/svg">
<path d="M10.2 2.25005C10.2 2.1307 10.1526 2.01624 10.0682 1.93185C9.9838 1.84746 9.86934 1.80005 9.74999 1.80005C9.63064 1.80005 9.51618 1.84746 9.43179 1.93185C9.3474 2.01624 9.29999 2.1307 9.29999 2.25005V9.75005C9.29999 9.8694 9.3474 9.98386 9.43179 10.0682C9.51618 10.1526 9.63064 10.2 9.74999 10.2C9.86934 10.2 9.9838 10.1526 10.0682 10.0682C10.1526 9.98386 10.2 9.8694 10.2 9.75005V2.25005Z" fill="#305FF5"/>
<path d="M1.79999 2.64068C1.80002 2.50497 1.83688 2.37181 1.90663 2.2554C1.97638 2.13898 2.07641 2.04368 2.19606 1.97963C2.31571 1.91559 2.45049 1.88521 2.58605 1.89174C2.7216 1.89826 2.85284 1.94144 2.96579 2.01668L8.00459 5.37608C8.10731 5.44457 8.19153 5.53736 8.24978 5.64622C8.30803 5.75507 8.33851 5.87662 8.33851 6.00008C8.33851 6.12354 8.30803 6.24509 8.24978 6.35394C8.19153 6.4628 8.10731 6.55559 8.00459 6.62408L2.96579 9.98408C2.8528 10.0593 2.7215 10.1025 2.5859 10.109C2.45029 10.1155 2.31546 10.0851 2.19579 10.021C2.07612 9.95687 1.9761 9.86148 1.9064 9.74498C1.83669 9.62848 1.79991 9.49524 1.79999 9.35948V2.64008V2.64068Z" fill="#305FF5"/>
</svg>
