<svg width="12" height="12" viewBox="0 0 12 12" fill="none" xmlns="http://www.w3.org/2000/svg">
<path d="M5.8005 2.49493C5.99448 2.3009 6.22477 2.14698 6.47824 2.04195C6.7317 1.93693 7.00337 1.88285 7.27773 1.88282C7.5521 1.88278 7.82378 1.93679 8.07727 2.04175C8.33076 2.14671 8.5611 2.30057 8.75513 2.49455C8.94915 2.68853 9.10307 2.91883 9.2081 3.17229C9.31313 3.42576 9.3672 3.69743 9.36724 3.97179C9.36727 4.24615 9.31326 4.51783 9.2083 4.77132C9.10334 5.02482 8.94948 5.25515 8.7555 5.44918L4.665 9.53893C4.56248 9.64497 4.50572 9.78703 4.50693 9.93452C4.50814 10.082 4.56723 10.2231 4.67148 10.3275C4.77572 10.4318 4.91678 10.491 5.06426 10.4924C5.21175 10.4937 5.35386 10.4371 5.46 10.3347L9.5505 6.24493C10.137 5.63889 10.4619 4.82662 10.455 3.98326C10.4482 3.1399 10.1101 2.33303 9.51381 1.73661C8.91749 1.1402 8.11067 0.802036 7.26732 0.795033C6.42396 0.78803 5.61164 1.11275 5.0055 1.69918L3.375 3.32893V1.87468C3.375 1.72549 3.31574 1.58242 3.21025 1.47693C3.10476 1.37144 2.96168 1.31218 2.8125 1.31218C2.66332 1.31218 2.52024 1.37144 2.41475 1.47693C2.30926 1.58242 2.25 1.72549 2.25 1.87468V4.68718C2.25 4.99843 2.502 5.24968 2.8125 5.24968H5.625C5.77418 5.24968 5.91726 5.19042 6.02275 5.08493C6.12824 4.97944 6.1875 4.83636 6.1875 4.68718C6.1875 4.53799 6.12824 4.39492 6.02275 4.28943C5.91726 4.18394 5.77418 4.12468 5.625 4.12468H4.17L5.8005 2.49568V2.49493Z" fill="#305FF5"/>
</svg>
