<svg width="18" height="20" viewBox="0 0 18 20" fill="none" xmlns="http://www.w3.org/2000/svg">
<path d="M18 10.09C17.9743 9.78587 17.8681 9.49406 17.6924 9.24451C17.5167 8.99497 17.2777 8.79668 17 8.67V8H10.85C10.3462 7.96419 9.87468 7.73913 9.53 7.37C9.18595 6.99709 8.9965 6.50736 9 6V0H2.85C2.34624 0.0358073 1.87468 0.260872 1.53 0.63C1.18595 1.00291 0.996496 1.49264 1 2V8.67L0.87 8.74C0.605709 8.89375 0.386316 9.11407 0.233672 9.379C0.0810283 9.64394 0.000462634 9.94424 0 10.25V15.91C0.0239268 16.2116 0.127449 16.5015 0.3 16.75C0.478355 16.9976 0.715469 17.1969 0.99 17.33V18.15C1.02581 18.6538 1.25087 19.1253 1.62 19.47C1.99543 19.8164 2.48919 20.0061 3 20H15.15C15.6538 19.9642 16.1253 19.7391 16.47 19.37C16.814 18.9971 17.0035 18.5074 17 18V17.33L17.13 17.26C17.3991 17.1109 17.6209 16.8891 17.77 16.62C17.9216 16.3552 18.0009 16.0552 18 15.75V10.09ZM16.5 15.75C16.5014 15.7832 16.4959 15.8163 16.4839 15.8473C16.4718 15.8783 16.4534 15.9064 16.4299 15.9299C16.4064 15.9534 16.3783 15.9718 16.3473 15.9839C16.3163 15.9959 16.2832 16.0014 16.25 16H1.75C1.6837 16 1.62011 15.9737 1.57322 15.9268C1.52634 15.8799 1.5 15.8163 1.5 15.75V10.25C1.49858 10.2168 1.50408 10.1837 1.51615 10.1527C1.52821 10.1217 1.54657 10.0936 1.57008 10.0701C1.59358 10.0466 1.62171 10.0282 1.65268 10.0161C1.68365 10.0041 1.71679 9.99858 1.75 10H16.25C16.2832 9.99858 16.3163 10.0041 16.3473 10.0161C16.3783 10.0282 16.4064 10.0466 16.4299 10.0701C16.4534 10.0936 16.4718 10.1217 16.4839 10.1527C16.4959 10.1837 16.5014 10.2168 16.5 10.25V15.75Z" fill="#10AC84"/>
</svg>
