<svg width="24" height="24" viewBox="0 0 24 24" fill="none" xmlns="http://www.w3.org/2000/svg">
<path d="M12 24C18.6274 24 24 18.6274 24 12C24 5.37255 18.6274 0 12 0C5.37255 0 0 5.37255 0 12C0 18.6274 5.37255 24 12 24Z" fill="#305FF5"/>
<path d="M7.17966 12.5757C7.17966 12.5757 3.56923 9.72187 6.63157 5.95852C8.15839 4.24306 11.0033 3.74944 12.5669 3.78159C14.1306 3.81374 15.7746 3.95774 16.1316 3.76887C16.5194 3.5637 16.6804 3.23351 16.8268 3.02633C16.973 2.81915 17.3552 2.21079 17.848 2.54433C18.3405 2.87765 17.8727 3.47083 17.6901 3.71015C17.5711 3.86643 16.9911 4.36785 16.3149 4.6324C16.3149 4.6324 19.3833 6.17708 18.9615 9.19187C18.5396 12.2067 15.7333 13.9322 11.4875 13.7842C9.04001 13.7141 8.14276 13.0673 8.14276 13.0673C8.14276 13.0673 7.19127 13.297 7.71836 14.1313C7.94965 14.4157 8.09968 14.426 9.12463 14.4899C10.1494 14.5539 15.5721 14.558 16.2274 14.6767C16.7232 14.7667 18.4639 15.5914 17.6533 17.4241C17.2976 18.3691 13.7774 20.7295 10.4559 21.9431C10.4559 21.9431 14.365 18.9824 14.7459 18.4244C15.1265 17.8668 14.8439 17.6904 13.9882 17.7518C13.1327 17.813 10.2496 18.234 8.49282 18.1215C6.73628 18.009 4.96321 16.5773 5.71825 14.336C5.98727 13.6194 6.74141 12.9162 7.17966 12.5757ZM13.714 10.5001C13.714 10.5001 15.3636 9.57118 16.5393 7.3525C17.3256 5.86877 16.5203 4.66009 14.2829 5.3995C12.0454 6.13913 11.1542 6.85956 10.263 7.52329C9.37176 8.18702 8.14723 9.64686 7.78311 10.5001C7.41876 11.3534 7.64625 12.9463 9.84595 12.3585C12.0454 11.7707 13.714 10.5001 13.714 10.5001Z" fill="white"/>
</svg>
