<svg width="16" height="16" viewBox="0 0 16 16" fill="none" xmlns="http://www.w3.org/2000/svg">
<path d="M7.99331 1.33325C4.31331 1.33325 1.33331 4.31992 1.33331 7.99992C1.33331 11.6799 4.31331 14.6666 7.99331 14.6666C11.68 14.6666 14.6666 11.6799 14.6666 7.99992C14.6666 4.31992 11.68 1.33325 7.99331 1.33325ZM7.99998 13.3333C5.05331 13.3333 2.66665 10.9466 2.66665 7.99992C2.66665 5.05325 5.05331 2.66659 7.99998 2.66659C10.9466 2.66659 13.3333 5.05325 13.3333 7.99992C13.3333 10.9466 10.9466 13.3333 7.99998 13.3333ZM8.33331 5.16658C8.33331 4.89044 8.10946 4.66658 7.83331 4.66658C7.55717 4.66658 7.33331 4.89044 7.33331 5.16658V8.10039C7.33331 8.45166 7.51761 8.77716 7.81882 8.95789L10.4255 10.5219C10.6512 10.6573 10.9439 10.5853 11.0809 10.3605C11.2198 10.1327 11.1458 9.83534 10.9164 9.69919L8.33331 8.16658V5.16658Z" fill="#F9A648"/>
</svg>
