<svg width="16" height="16" viewBox="0 0 16 16" fill="none" xmlns="http://www.w3.org/2000/svg">
<path fill-rule="evenodd" clip-rule="evenodd" d="M7.7147 1.14282H3.42899L3.34328 1.14568C2.75242 1.18968 2.28613 1.68339 2.28613 2.28568V13.7143L2.28899 13.8C2.31075 14.0874 2.44029 14.3561 2.65168 14.5521C2.86306 14.7481 3.1407 14.8571 3.42899 14.8571H12.5718L12.6576 14.8543C12.945 14.8325 13.2137 14.703 13.4097 14.4916C13.6057 14.2802 13.7147 14.0025 13.7147 13.7143V7.14282L13.7101 7.09139C13.6981 7.02561 13.6634 6.96614 13.612 6.92333C13.5606 6.88052 13.4959 6.85709 13.429 6.85711H9.14328L9.05756 6.85425C8.4667 6.81025 8.00042 6.31654 8.00042 5.71425V1.42854L7.99585 1.37711C7.98381 1.31133 7.94908 1.25185 7.89771 1.20904C7.84634 1.16623 7.78158 1.1428 7.7147 1.14282ZM8.85756 1.63539V5.71425L8.86213 5.76568C8.87417 5.83146 8.9089 5.89093 8.96027 5.93374C9.01164 5.97655 9.0764 5.99999 9.14328 5.99996H13.2221L13.2484 5.99597C13.2624 5.99147 13.275 5.98344 13.285 5.97267C13.295 5.9619 13.3021 5.94873 13.3055 5.93445C13.3089 5.92016 13.3087 5.90523 13.3047 5.89108C13.3007 5.87694 13.2931 5.86406 13.2827 5.85368L9.00385 1.57482L8.98213 1.55882C8.96905 1.55217 8.95448 1.54899 8.93982 1.54958C8.92516 1.55017 8.91089 1.55452 8.89839 1.5622C8.88589 1.56989 8.87557 1.58065 8.86842 1.59347C8.86127 1.60628 8.85753 1.62072 8.85756 1.63539ZM9.80058 12.937H6.19849L6.17127 12.9389C6.12104 12.9458 6.0753 12.9715 6.0433 13.0108C6.01129 13.0502 5.99542 13.1002 5.99887 13.1508C6.00233 13.2014 6.02486 13.2488 6.06192 13.2834C6.09897 13.318 6.14778 13.3373 6.19849 13.3373H9.80058L9.82754 13.3354C9.87775 13.3285 9.92347 13.3028 9.95547 13.2635C9.98747 13.2242 10.0034 13.1742 9.99995 13.1236C9.99653 13.0731 9.97404 13.0257 9.93704 12.991C9.90004 12.9564 9.85127 12.9371 9.80058 12.937ZM7.8106 8.07827L6.47683 9.41178V9.41151L6.45468 9.43686C6.41485 9.4882 6.39512 9.55232 6.3992 9.61717C6.40328 9.68203 6.43088 9.74317 6.47683 9.78912L6.50191 9.81127C6.55326 9.8511 6.61737 9.87082 6.68223 9.86674C6.74708 9.86267 6.80822 9.83506 6.85417 9.78912L7.73294 8.91008L7.73268 12.2699L7.73481 12.3011C7.74246 12.366 7.77366 12.4258 7.82251 12.4693C7.87135 12.5127 7.93444 12.5367 7.9998 12.5367L8.03076 12.5349C8.09572 12.5273 8.15564 12.4961 8.19913 12.4472C8.24262 12.3984 8.26665 12.3353 8.26667 12.2699V8.91088L9.14571 9.78912L9.17079 9.81127C9.22441 9.85322 9.29204 9.8731 9.35983 9.86683C9.42762 9.86056 9.49045 9.82861 9.53547 9.77753C9.58048 9.72645 9.60426 9.6601 9.60195 9.59205C9.59965 9.52401 9.57142 9.45942 9.52305 9.41151L8.18767 8.078L8.16286 8.05585C8.11148 8.01606 8.04735 7.99638 7.98249 8.00051C7.91764 8.00463 7.85652 8.03228 7.8106 8.07827Z" fill="#305FF5"/>
</svg>
