<svg width="12" height="12" viewBox="0 0 12 12" fill="none" xmlns="http://www.w3.org/2000/svg">
<path d="M0.397158 0.553943L0.470158 0.469943C0.597146 0.342925 0.7655 0.265697 0.944609 0.252301C1.12372 0.238904 1.30169 0.290229 1.44616 0.396943L1.53016 0.469943L6.00016 4.93894L10.4702 0.468943C10.5394 0.397344 10.6222 0.340247 10.7137 0.300984C10.8052 0.261721 10.9036 0.241078 11.0032 0.24026C11.1028 0.239442 11.2015 0.258465 11.2937 0.296219C11.3859 0.333973 11.4696 0.389702 11.54 0.460154C11.6103 0.530607 11.666 0.614372 11.7037 0.706561C11.7413 0.798751 11.7603 0.897519 11.7593 0.997103C11.7584 1.09669 11.7377 1.19509 11.6983 1.28658C11.659 1.37806 11.6018 1.46079 11.5302 1.52994L7.06116 5.99994L11.5312 10.4699C11.658 10.5971 11.7351 10.7655 11.7483 10.9446C11.7615 11.1237 11.71 11.3016 11.6032 11.4459L11.5302 11.5299C11.4032 11.657 11.2348 11.7342 11.0557 11.7476C10.8766 11.761 10.6986 11.7097 10.5542 11.6029L10.4702 11.5299L6.00016 7.06094L1.53016 11.5309C1.38864 11.6675 1.19915 11.743 1.00251 11.7412C0.805859 11.7394 0.617786 11.6604 0.478795 11.5213C0.339804 11.3822 0.261015 11.194 0.2594 10.9974C0.257784 10.8007 0.333471 10.6113 0.470158 10.4699L4.93916 5.99994L0.469158 1.52994C0.34229 1.40283 0.265246 1.23441 0.252034 1.0553C0.238821 0.876199 0.290316 0.698298 0.397158 0.553943L0.470158 0.469943L0.397158 0.553943Z" fill="#3C4252"/>
</svg>
