<svg width="18" height="22" viewBox="0 0 18 22" fill="none" xmlns="http://www.w3.org/2000/svg">
<path fill-rule="evenodd" clip-rule="evenodd" d="M8.57157 0.714233H2.143L2.01443 0.718519C1.12814 0.784519 0.428711 1.52509 0.428711 2.42852V19.5714L0.432997 19.6999C0.465629 20.1312 0.659941 20.5341 0.977025 20.8281C1.29411 21.1222 1.71056 21.2856 2.143 21.2857H15.8573L15.9859 21.2814C16.4171 21.2487 16.82 21.0544 17.1141 20.7373C17.4081 20.4203 17.5715 20.0038 17.5716 19.5714V9.71423L17.5647 9.63709C17.5467 9.53842 17.4946 9.44921 17.4175 9.385C17.3404 9.32078 17.2433 9.28563 17.143 9.28566H10.7144L10.5859 9.28138C9.69957 9.21538 9.00014 8.4748 9.00014 7.57138V1.1428L8.99328 1.06566C8.97523 0.966993 8.92313 0.877783 8.84608 0.813567C8.76902 0.749352 8.67188 0.7142 8.57157 0.714233ZM10.2859 1.45309V7.57138L10.2927 7.64852C10.3108 7.74719 10.3629 7.8364 10.4399 7.90061C10.517 7.96483 10.6141 7.99998 10.7144 7.99995H16.8327L16.8721 7.99395C16.8931 7.9872 16.912 7.97517 16.927 7.95901C16.942 7.94285 16.9526 7.9231 16.9578 7.90167C16.9629 7.88024 16.9625 7.85784 16.9565 7.83662C16.9505 7.81541 16.9392 7.79609 16.9236 7.78052L10.5053 1.36223L10.4727 1.33823C10.4531 1.32825 10.4312 1.32348 10.4092 1.32437C10.3872 1.32525 10.3658 1.33177 10.3471 1.3433C10.3283 1.35483 10.3129 1.37098 10.3021 1.3902C10.2914 1.40942 10.2858 1.43108 10.2859 1.45309ZM11.7004 18.4055H6.29727L6.25644 18.4083C6.18109 18.4187 6.11248 18.4573 6.06448 18.5163C6.01648 18.5753 5.99266 18.6503 5.99785 18.7262C6.00303 18.8021 6.03683 18.8732 6.09241 18.9251C6.14799 18.977 6.22121 19.0059 6.29727 19.0059H11.7004L11.7408 19.0031C11.8162 18.9928 11.8847 18.9542 11.9327 18.8953C11.9807 18.8363 12.0046 18.7613 11.9995 18.6855C11.9943 18.6096 11.9606 18.5385 11.9051 18.4866C11.8496 18.4346 11.7764 18.4056 11.7004 18.4055ZM8.71544 11.1174L6.71478 13.1177V13.1173L6.68155 13.1553C6.62181 13.2323 6.59222 13.3285 6.59834 13.4258C6.60445 13.523 6.64586 13.6147 6.71478 13.6837L6.75241 13.7169C6.82942 13.7766 6.92559 13.8062 7.02287 13.8001C7.12016 13.794 7.21186 13.7526 7.28079 13.6837L8.59895 12.3651L8.59855 17.4048L8.60175 17.4516C8.61322 17.549 8.66003 17.6388 8.7333 17.7039C8.80657 17.7691 8.9012 17.8051 8.99924 17.8051L9.04568 17.8023C9.14312 17.7909 9.23299 17.7441 9.29822 17.6708C9.36346 17.5976 9.39951 17.5029 9.39953 17.4048V12.3663L10.7181 13.6837L10.7557 13.7169C10.8361 13.7798 10.9376 13.8096 11.0393 13.8002C11.141 13.7908 11.2352 13.7429 11.3027 13.6663C11.3702 13.5897 11.4059 13.4901 11.4025 13.3881C11.399 13.286 11.3567 13.1891 11.2841 13.1173L9.28105 11.117L9.24382 11.0838C9.16675 11.0241 9.07056 10.9946 8.97327 11.0008C8.87599 11.0069 8.78431 11.0484 8.71544 11.1174Z" fill="#C0C4CB"/>
</svg>
