<svg width="16" height="16" viewBox="0 0 16 16" fill="none" xmlns="http://www.w3.org/2000/svg">
<path d="M14.046 3.48607C14.1823 3.63089 14.2555 3.82391 14.2495 4.02269C14.2435 4.22147 14.1588 4.40973 14.014 4.54607L6.084 12.0201C5.92234 12.1723 5.70753 12.2552 5.48551 12.2511C5.2635 12.247 5.0519 12.1562 4.896 11.9981L2.216 9.27807C2.14503 9.20834 2.08864 9.12518 2.05012 9.03345C2.01161 8.94171 1.99172 8.84323 1.99164 8.74374C1.99155 8.64425 2.01126 8.54573 2.04962 8.45393C2.08798 8.36213 2.14422 8.27888 2.21507 8.20902C2.28592 8.13917 2.36996 8.08411 2.46229 8.04705C2.55463 8.01 2.65341 7.99168 2.75289 7.99317C2.85238 7.99467 2.95057 8.01594 3.04175 8.05575C3.13293 8.09556 3.21528 8.15312 3.284 8.22507L5.518 10.4921L12.986 3.45407C13.1308 3.31778 13.3238 3.24459 13.5226 3.25059C13.7214 3.25659 13.9097 3.34129 14.046 3.48607Z" fill="#10AC84"/>
</svg>
