<svg width="16" height="16" viewBox="0 0 16 16" fill="none" xmlns="http://www.w3.org/2000/svg">
<path d="M4.5 14H6.257C5.44269 13.0156 4.99806 11.7775 5 10.5C5 8.64 5.923 6.995 7.337 6H2V11.5C2 12.163 2.26339 12.7989 2.73223 13.2678C3.20107 13.7366 3.83696 14 4.5 14Z" fill="#F9A648"/>
<path d="M14 5H2V4.5C2 3.83696 2.26339 3.20107 2.73223 2.73223C3.20107 2.26339 3.83696 2 4.5 2H11.5C12.163 2 12.7989 2.26339 13.2678 2.73223C13.7366 3.20107 14 3.83696 14 4.5V5Z" fill="#F9A648"/>
<path d="M15 10.5C15 11.0909 14.8836 11.6761 14.6575 12.2221C14.4313 12.768 14.0998 13.2641 13.682 13.682C13.2641 14.0998 12.768 14.4313 12.2221 14.6575C11.6761 14.8836 11.0909 15 10.5 15C9.90905 15 9.32389 14.8836 8.77792 14.6575C8.23196 14.4313 7.73588 14.0998 7.31802 13.682C6.90016 13.2641 6.56869 12.768 6.34254 12.2221C6.1164 11.6761 6 11.0909 6 10.5C6 9.30653 6.47411 8.16193 7.31802 7.31802C8.16193 6.47411 9.30653 6 10.5 6C11.6935 6 12.8381 6.47411 13.682 7.31802C14.5259 8.16193 15 9.30653 15 10.5ZM12.854 8.646C12.8076 8.59944 12.7524 8.56249 12.6916 8.53729C12.6309 8.51208 12.5658 8.49911 12.5 8.49911C12.4342 8.49911 12.3691 8.51208 12.3084 8.53729C12.2476 8.56249 12.1924 8.59944 12.146 8.646L9.5 11.293L8.854 10.646C8.80751 10.5995 8.75232 10.5626 8.69158 10.5375C8.63084 10.5123 8.56574 10.4994 8.5 10.4994C8.43426 10.4994 8.36916 10.5123 8.30842 10.5375C8.24768 10.5626 8.19249 10.5995 8.146 10.646C8.09951 10.6925 8.06264 10.7477 8.03748 10.8084C8.01232 10.8692 7.99937 10.9343 7.99937 11C7.99937 11.0657 8.01232 11.1308 8.03748 11.1916C8.06264 11.2523 8.09951 11.3075 8.146 11.354L9.146 12.354C9.19245 12.4006 9.24762 12.4375 9.30837 12.4627C9.36911 12.4879 9.43423 12.5009 9.5 12.5009C9.56577 12.5009 9.63089 12.4879 9.69163 12.4627C9.75238 12.4375 9.80755 12.4006 9.854 12.354L12.854 9.354C12.9006 9.30755 12.9375 9.25238 12.9627 9.19163C12.9879 9.13089 13.0009 9.06577 13.0009 9C13.0009 8.93423 12.9879 8.86911 12.9627 8.80837C12.9375 8.74762 12.9006 8.69245 12.854 8.646Z" fill="#F9A648"/>
</svg>
