<svg width="12" height="15" viewBox="0 0 12 15" fill="none" xmlns="http://www.w3.org/2000/svg">
<path d="M1.40625 0.600098C1.2322 0.600098 1.06528 0.666778 0.942211 0.78547C0.81914 0.904162 0.75 1.06514 0.75 1.233C0.75 1.40085 0.81914 1.56183 0.942211 1.68053C1.06528 1.79922 1.2322 1.8659 1.40625 1.8659H10.5938C10.7678 1.8659 10.9347 1.79922 11.0578 1.68053C11.1809 1.56183 11.25 1.40085 11.25 1.233C11.25 1.06514 11.1809 0.904162 11.0578 0.78547C10.9347 0.666778 10.7678 0.600098 10.5938 0.600098H1.40625Z" fill="#305FF5"/>
<path d="M6.65301 13.5535C6.63035 13.7123 6.54601 13.857 6.41703 13.9582C6.28804 14.0594 6.12404 14.1096 5.95816 14.0986C5.79227 14.0877 5.63688 14.0165 5.52336 13.8993C5.40985 13.7821 5.34669 13.6278 5.34664 13.4674V4.8684L2.74526 7.37384L2.67176 7.43545C2.53859 7.53091 2.37285 7.57418 2.20793 7.55654C2.043 7.5389 1.89113 7.46165 1.78288 7.34036C1.67463 7.21906 1.61805 7.06272 1.62452 6.90281C1.631 6.7429 1.70004 6.59129 1.81776 6.4785L5.57151 2.86168C5.63703 2.80633 5.71354 2.76441 5.79639 2.73848L5.86639 2.71907C5.90982 2.71015 5.9541 2.70563 5.99851 2.70557L6.05101 2.70725L6.11226 2.71401L6.21726 2.73932L6.29689 2.77139L6.32926 2.78827L6.40801 2.8389L6.47101 2.89122L10.1828 6.47766L10.2466 6.54938C10.3399 6.6714 10.3847 6.82164 10.3728 6.97278C10.3609 7.12393 10.2932 7.26594 10.1819 7.373L10.1084 7.4346C9.98188 7.52455 9.82609 7.56771 9.66937 7.55625C9.51265 7.54479 9.36539 7.47947 9.25439 7.37215L6.65914 4.86587V13.4674L6.65301 13.5535Z" fill="#305FF5"/>
</svg>
