<svg width="24" height="24" viewBox="0 0 24 24" fill="none" xmlns="http://www.w3.org/2000/svg">
<path d="M12 2V8C11.9998 8.50458 12.1904 8.99057 12.5335 9.36055C12.8766 9.73053 13.3468 9.95716 13.85 9.995L14 10H20V10.668C20.546 10.928 20.936 11.461 20.993 12.091L21 12.25V17.75C21 18.0556 20.92 18.3559 20.7679 18.621C20.6158 18.8861 20.3969 19.1068 20.133 19.261L20 19.331V20C20.0002 20.5046 19.8096 20.9906 19.4665 21.3605C19.1234 21.7305 18.6532 21.9572 18.15 21.995L18 22H6C5.49542 22.0002 5.00943 21.8096 4.63945 21.4665C4.26947 21.1234 4.04284 20.6532 4.005 20.15L4 20V19.332C3.72511 19.2015 3.48896 19.0017 3.31483 18.7522C3.14071 18.5026 3.03461 18.212 3.007 17.909L3 17.75V12.25C3 11.606 3.348 11.043 3.867 10.739L4 10.669V4C3.99984 3.49542 4.19041 3.00943 4.5335 2.63945C4.87659 2.26947 5.34684 2.04284 5.85 2.005L6 2H12ZM19.25 12H4.75C4.6837 12 4.62011 12.0263 4.57322 12.0732C4.52634 12.1201 4.5 12.1837 4.5 12.25V17.75C4.5 17.888 4.612 18 4.75 18H19.25C19.3163 18 19.3799 17.9737 19.4268 17.9268C19.4737 17.8799 19.5 17.8163 19.5 17.75V12.25C19.5 12.1837 19.4737 12.1201 19.4268 12.0732C19.3799 12.0263 19.3163 12 19.25 12ZM8.5 13.002C8.88723 12.999 9.26061 13.146 9.54199 13.412C9.82338 13.678 9.99097 14.0426 10.0097 14.4294C10.0284 14.8162 9.89686 15.1952 9.6425 15.4872C9.38813 15.7792 9.03071 15.9615 8.645 15.996L8.5 16.003H8.003V16.503C8.00298 16.6279 7.95624 16.7482 7.87198 16.8403C7.78772 16.9325 7.67204 16.9898 7.54768 17.0009C7.42332 17.0121 7.29929 16.9763 7.19997 16.9006C7.10066 16.825 7.03325 16.7149 7.011 16.592L7.003 16.502V13.502C7.00296 13.385 7.04397 13.2716 7.11889 13.1817C7.19381 13.0918 7.29789 13.0311 7.413 13.01L7.503 13.002H8.5ZM17.003 13.002C17.1356 13.002 17.2628 13.0547 17.3566 13.1484C17.4503 13.2422 17.503 13.3694 17.503 13.502C17.503 13.6346 17.4503 13.7618 17.3566 13.8556C17.2628 13.9493 17.1356 14.002 17.003 14.002H15.997L15.996 15.004H17.003C17.1356 15.004 17.2628 15.0567 17.3566 15.1504C17.4503 15.2442 17.503 15.3714 17.503 15.504C17.503 15.6366 17.4503 15.7638 17.3566 15.8576C17.2628 15.9513 17.1356 16.004 17.003 16.004H15.996L15.998 16.501C15.9981 16.5667 15.9853 16.6317 15.9603 16.6924C15.9353 16.7531 15.8986 16.8083 15.8523 16.8548C15.7587 16.9488 15.6316 17.0017 15.499 17.002C15.3664 17.0023 15.2391 16.9498 15.1452 16.8563C15.0512 16.7627 14.9983 16.6356 14.998 16.503L14.995 15.503L14.998 13.501C14.9983 13.3686 15.0511 13.2416 15.1448 13.1481C15.2385 13.0545 15.3656 13.002 15.498 13.002H17.003ZM11.998 13.002C12.5169 13 13.0163 13.1997 13.3907 13.5589C13.765 13.9182 13.9852 14.4089 14.0045 14.9274C14.0238 15.446 13.8409 15.9517 13.4943 16.3379C13.1477 16.724 12.6646 16.9604 12.147 16.997L11.997 17.002H11.5C11.383 17.002 11.2696 16.961 11.1797 16.8861C11.0898 16.8112 11.0291 16.7071 11.008 16.592L11 16.502V13.502C11 13.385 11.041 13.2716 11.1159 13.1817C11.1908 13.0918 11.2949 13.0311 11.41 13.01L11.5 13.002H11.998ZM12 14.002V16.002C12.2548 16.0015 12.4998 15.9037 12.6849 15.7286C12.8701 15.5536 12.9814 15.3145 12.9962 15.0601C13.011 14.8057 12.9282 14.5553 12.7646 14.36C12.601 14.1646 12.369 14.0391 12.116 14.009L12 14.002ZM8.5 14.002H8.003V15.002H8.5C8.62495 15.0022 8.74545 14.9557 8.83778 14.8715C8.93012 14.7873 8.98759 14.6716 8.99888 14.5472C9.01017 14.4227 8.97446 14.2986 8.89878 14.1992C8.8231 14.0997 8.71295 14.0323 8.59 14.01L8.5 14.002ZM13.5 2.5L19.5 8.5H14C13.8674 8.5 13.7402 8.44732 13.6464 8.35355C13.5527 8.25979 13.5 8.13261 13.5 8V2.5Z" fill="#F65747"/>
</svg>
