<svg width="16" height="16" viewBox="0 0 16 16" fill="none" xmlns="http://www.w3.org/2000/svg">
<path d="M3.40625 1.6001C3.2322 1.6001 3.06528 1.66678 2.94221 1.78547C2.81914 1.90416 2.75 2.06514 2.75 2.233C2.75 2.40085 2.81914 2.56183 2.94221 2.68053C3.06528 2.79922 3.2322 2.8659 3.40625 2.8659H12.5938C12.7678 2.8659 12.9347 2.79922 13.0578 2.68053C13.1809 2.56183 13.25 2.40085 13.25 2.233C13.25 2.06514 13.1809 1.90416 13.0578 1.78547C12.9347 1.66678 12.7678 1.6001 12.5938 1.6001H3.40625Z" fill="#F65747"/>
<path d="M8.65277 14.5535C8.63011 14.7123 8.54576 14.857 8.41678 14.9582C8.2878 15.0594 8.1238 15.1096 7.95791 15.0986C7.79203 15.0877 7.63663 15.0165 7.52312 14.8993C7.40961 14.7821 7.34645 14.6278 7.34639 14.4674V5.8684L4.74502 8.37384L4.67152 8.43545C4.53834 8.53091 4.37261 8.57418 4.20768 8.55654C4.04276 8.5389 3.89088 8.46165 3.78264 8.34036C3.67439 8.21906 3.61781 8.06272 3.62428 7.90281C3.63075 7.7429 3.6998 7.59129 3.81752 7.4785L7.57127 3.86168C7.63679 3.80633 7.7133 3.76441 7.79614 3.73848L7.86614 3.71907C7.90958 3.71015 7.95386 3.70563 7.99827 3.70557L8.05077 3.70725L8.11202 3.71401L8.21702 3.73932L8.29664 3.77139L8.32902 3.78827L8.40777 3.8389L8.47077 3.89122L12.1825 7.47766L12.2464 7.54938C12.3397 7.6714 12.3844 7.82164 12.3725 7.97278C12.3607 8.12393 12.2929 8.26594 12.1816 8.373L12.1081 8.4346C11.9816 8.52455 11.8258 8.56771 11.6691 8.55625C11.5124 8.54479 11.3651 8.47947 11.2541 8.37215L8.65889 5.86587V14.4674L8.65277 14.5535Z" fill="#F65747"/>
</svg>
