<svg width="16" height="16" viewBox="0 0 16 16" fill="none" xmlns="http://www.w3.org/2000/svg">
<path d="M4.5 14H6.257C5.44269 13.0156 4.99806 11.7775 5 10.5C5 8.64 5.923 6.995 7.337 6H2V11.5C2 12.163 2.26339 12.7989 2.73223 13.2678C3.20107 13.7366 3.83696 14 4.5 14Z" fill="#305FF5"/>
<path d="M14 5H2V4.5C2 3.83696 2.26339 3.20107 2.73223 2.73223C3.20107 2.26339 3.83696 2 4.5 2H11.5C12.163 2 12.7989 2.26339 13.2678 2.73223C13.7366 3.20107 14 3.83696 14 4.5V5Z" fill="#305FF5"/>
<path d="M10.5 15C11.0909 15 11.6761 14.8836 12.2221 14.6575C12.768 14.4313 13.2641 14.0998 13.682 13.682C14.0998 13.2641 14.4313 12.768 14.6575 12.2221C14.8836 11.6761 15 11.0909 15 10.5C15 9.90905 14.8836 9.32389 14.6575 8.77792C14.4313 8.23196 14.0998 7.73588 13.682 7.31802C13.2641 6.90016 12.768 6.56869 12.2221 6.34254C11.6761 6.1164 11.0909 6 10.5 6C9.30653 6 8.16193 6.47411 7.31802 7.31802C6.47411 8.16193 6 9.30653 6 10.5C6 11.6935 6.47411 12.8381 7.31802 13.682C8.16193 14.5259 9.30653 15 10.5 15ZM10 8.5C10 8.36739 10.0527 8.24021 10.1464 8.14645C10.2402 8.05268 10.3674 8 10.5 8C10.6326 8 10.7598 8.05268 10.8536 8.14645C10.9473 8.24021 11 8.36739 11 8.5V10H12C12.1326 10 12.2598 10.0527 12.3536 10.1464C12.4473 10.2402 12.5 10.3674 12.5 10.5C12.5 10.6326 12.4473 10.7598 12.3536 10.8536C12.2598 10.9473 12.1326 11 12 11H10.5C10.3674 11 10.2402 10.9473 10.1464 10.8536C10.0527 10.7598 10 10.6326 10 10.5V8.5Z" fill="#305FF5"/>
</svg>
