<svg width="18" height="20" viewBox="0 0 18 20" fill="none" xmlns="http://www.w3.org/2000/svg">
<path d="M9 0V6C8.99984 6.50458 9.19041 6.99057 9.5335 7.36055C9.87659 7.73053 10.3468 7.95716 10.85 7.995L11 8H17V8.668C17.546 8.928 17.936 9.461 17.993 10.091L18 10.25V15.75C18 16.0556 17.92 16.3559 17.7679 16.621C17.6158 16.8861 17.3969 17.1068 17.133 17.261L17 17.331V18C17.0002 18.5046 16.8096 18.9906 16.4665 19.3605C16.1234 19.7305 15.6532 19.9572 15.15 19.995L15 20H3C2.49542 20.0002 2.00943 19.8096 1.63945 19.4665C1.26947 19.1234 1.04284 18.6532 1.005 18.15L1 18V17.332C0.72511 17.2015 0.488962 17.0017 0.314834 16.7522C0.140706 16.5026 0.0346088 16.212 0.00699997 15.909L0 15.75V10.25C0 9.606 0.348 9.043 0.867 8.739L1 8.669V2C0.99984 1.49542 1.19041 1.00943 1.5335 0.639452C1.87659 0.269471 2.34684 0.0428433 2.85 0.00500011L3 0H9ZM16.25 10H1.75C1.6837 10 1.62011 10.0263 1.57322 10.0732C1.52634 10.1201 1.5 10.1837 1.5 10.25V15.75C1.5 15.888 1.612 16 1.75 16H16.25C16.3163 16 16.3799 15.9737 16.4268 15.9268C16.4737 15.8799 16.5 15.8163 16.5 15.75V10.25C16.5 10.1837 16.4737 10.1201 16.4268 10.0732C16.3799 10.0263 16.3163 10 16.25 10ZM5.5 11.002C5.88723 10.999 6.26061 11.146 6.54199 11.412C6.82338 11.678 6.99097 12.0426 7.0097 12.4294C7.02844 12.8162 6.89686 13.1952 6.6425 13.4872C6.38813 13.7792 6.03071 13.9615 5.645 13.996L5.5 14.003H5.003V14.503C5.00298 14.6279 4.95624 14.7482 4.87198 14.8403C4.78772 14.9325 4.67204 14.9898 4.54768 15.0009C4.42332 15.0121 4.29929 14.9763 4.19997 14.9006C4.10066 14.825 4.03325 14.7149 4.011 14.592L4.003 14.502V11.502C4.00296 11.385 4.04397 11.2716 4.11889 11.1817C4.19381 11.0918 4.29789 11.0311 4.413 11.01L4.503 11.002H5.5ZM14.003 11.002C14.1356 11.002 14.2628 11.0547 14.3566 11.1484C14.4503 11.2422 14.503 11.3694 14.503 11.502C14.503 11.6346 14.4503 11.7618 14.3566 11.8556C14.2628 11.9493 14.1356 12.002 14.003 12.002H12.997L12.996 13.004H14.003C14.1356 13.004 14.2628 13.0567 14.3566 13.1504C14.4503 13.2442 14.503 13.3714 14.503 13.504C14.503 13.6366 14.4503 13.7638 14.3566 13.8576C14.2628 13.9513 14.1356 14.004 14.003 14.004H12.996L12.998 14.501C12.9981 14.5667 12.9853 14.6317 12.9603 14.6924C12.9353 14.7531 12.8986 14.8083 12.8523 14.8548C12.7587 14.9488 12.6316 15.0017 12.499 15.002C12.3664 15.0023 12.2391 14.9498 12.1452 14.8563C12.0512 14.7627 11.9983 14.6356 11.998 14.503L11.995 13.503L11.998 11.501C11.9983 11.3686 12.0511 11.2416 12.1448 11.1481C12.2385 11.0545 12.3656 11.002 12.498 11.002H14.003ZM8.998 11.002C9.51689 11 10.0163 11.1997 10.3907 11.5589C10.765 11.9182 10.9852 12.4089 11.0045 12.9274C11.0238 13.446 10.8409 13.9517 10.4943 14.3379C10.1477 14.724 9.6646 14.9604 9.147 14.997L8.997 15.002H8.5C8.38297 15.002 8.26964 14.961 8.17974 14.8861C8.08984 14.8112 8.02907 14.7071 8.008 14.592L8 14.502V11.502C7.99996 11.385 8.04097 11.2716 8.11589 11.1817C8.19081 11.0918 8.29489 11.0311 8.41 11.01L8.5 11.002H8.998ZM9 12.002V14.002C9.2548 14.0015 9.49978 13.9037 9.68492 13.7286C9.87007 13.5536 9.98141 13.3145 9.99621 13.0601C10.011 12.8057 9.92817 12.5553 9.76458 12.36C9.601 12.1646 9.36901 12.0391 9.116 12.009L9 12.002ZM5.5 12.002H5.003V13.002H5.5C5.62495 13.0022 5.74545 12.9557 5.83778 12.8715C5.93012 12.7873 5.98759 12.6716 5.99888 12.5472C6.01017 12.4227 5.97446 12.2986 5.89878 12.1992C5.8231 12.0997 5.71295 12.0323 5.59 12.01L5.5 12.002ZM10.5 0.5L16.5 6.5H11C10.8674 6.5 10.7402 6.44732 10.6464 6.35355C10.5527 6.25979 10.5 6.13261 10.5 6V0.5Z" fill="#F65747"/>
</svg>
