<svg width="6" height="4" viewBox="0 0 6 4" fill="none" xmlns="http://www.w3.org/2000/svg">
<path d="M0.0759938 3.38303C0.151738 3.56572 0.27995 3.72184 0.444419 3.83167C0.608888 3.94149 0.802228 4.00008 0.999994 4.00003H4.99999C5.19774 3.99999 5.39104 3.94132 5.55545 3.83143C5.71986 3.72155 5.848 3.56538 5.92367 3.38269C5.99934 3.19999 6.01914 2.99895 5.98058 2.805C5.94201 2.61105 5.8468 2.43288 5.70699 2.29303L3.70699 0.293031C3.51947 0.10556 3.26516 0.000244141 2.99999 0.000244141C2.73483 0.000244141 2.48052 0.10556 2.29299 0.293031L0.292994 2.29303C0.153061 2.43288 0.057752 2.61108 0.019125 2.80511C-0.019502 2.99913 0.000289015 3.20026 0.0759938 3.38303Z" fill="#10AC84"/>
</svg>
