<svg width="6" height="4" viewBox="0 0 6 4" fill="none" xmlns="http://www.w3.org/2000/svg">
<path d="M0.0759938 0.617C0.151738 0.434314 0.27995 0.278189 0.444419 0.168366C0.608888 0.0585416 0.802228 -4.9735e-05 0.999994 3.16772e-08H4.99999C5.19774 4.2256e-05 5.39104 0.0587139 5.55545 0.168598C5.71986 0.278482 5.848 0.434646 5.92367 0.617345C5.99934 0.800045 6.01914 1.00108 5.98058 1.19503C5.94201 1.38898 5.8468 1.56715 5.70699 1.707L3.70699 3.707C3.51947 3.89447 3.26516 3.99979 2.99999 3.99979C2.73483 3.99979 2.48052 3.89447 2.29299 3.707L0.292994 1.707C0.153061 1.56716 0.057752 1.38895 0.019125 1.19492C-0.019502 1.0009 0.000289015 0.799775 0.0759938 0.617Z" fill="#F65747"/>
</svg>
