<svg width="18" height="20" viewBox="0 0 18 20" fill="none" xmlns="http://www.w3.org/2000/svg">
<g clip-path="url(#clip0)">
<path d="M11 6.5H16.5L10.5 0.5V6C10.5026 6.13181 10.5561 6.2575 10.6493 6.35072C10.7425 6.44394 10.8682 6.49744 11 6.5Z" fill="#10AC84"/>
<path d="M18 10.09C17.9743 9.78587 17.8681 9.49406 17.6924 9.24451C17.5167 8.99497 17.2777 8.79668 17 8.67V8H10.85C10.3462 7.96419 9.87468 7.73913 9.53 7.37C9.18595 6.99709 8.9965 6.50736 9 6V0H2.85C2.34624 0.0358073 1.87468 0.260872 1.53 0.63C1.18595 1.00291 0.996496 1.49264 1 2V8.67L0.87 8.74C0.605709 8.89375 0.386316 9.11407 0.233672 9.379C0.0810283 9.64394 0.000462634 9.94424 0 10.25V15.91C0.0239268 16.2116 0.127449 16.5015 0.3 16.75C0.478355 16.9976 0.715469 17.1969 0.99 17.33V18.15C1.02581 18.6538 1.25087 19.1253 1.62 19.47C1.99543 19.8164 2.48919 20.0061 3 20H15.15C15.6538 19.9642 16.1253 19.7391 16.47 19.37C16.814 18.9971 17.0035 18.5074 17 18V17.33L17.13 17.26C17.3991 17.1109 17.6209 16.8891 17.77 16.62C17.9216 16.3552 18.0009 16.0552 18 15.75V10.09ZM16.5 15.75C16.5014 15.7832 16.4959 15.8163 16.4839 15.8473C16.4718 15.8783 16.4534 15.9064 16.4299 15.9299C16.4064 15.9534 16.3783 15.9718 16.3473 15.9839C16.3163 15.9959 16.2832 16.0014 16.25 16H1.75C1.6837 16 1.62011 15.9737 1.57322 15.9268C1.52634 15.8799 1.5 15.8163 1.5 15.75V10.25C1.49858 10.2168 1.50408 10.1837 1.51615 10.1527C1.52821 10.1217 1.54657 10.0936 1.57008 10.0701C1.59358 10.0466 1.62171 10.0282 1.65268 10.0161C1.68365 10.0041 1.71679 9.99858 1.75 10H16.25C16.2832 9.99858 16.3163 10.0041 16.3473 10.0161C16.3783 10.0282 16.4064 10.0466 16.4299 10.0701C16.4534 10.0936 16.4718 10.1217 16.4839 10.1527C16.4959 10.1837 16.5014 10.2168 16.5 10.25V15.75Z" fill="#10AC84"/>
<path d="M6.15088 13.0999L7.15088 11.8999C7.22653 11.8064 7.26876 11.6902 7.27088 11.5699C7.27092 11.4682 7.2312 11.3705 7.16021 11.2976C7.08922 11.2248 6.99258 11.1825 6.89088 11.1799C6.80705 11.1791 6.72441 11.1999 6.65088 11.2401C6.57734 11.2804 6.51537 11.3389 6.47088 11.4099L5.63088 12.5199L4.78088 11.3899C4.74025 11.3236 4.68275 11.2692 4.61424 11.2323C4.54572 11.1954 4.46865 11.1773 4.39088 11.1799C4.33748 11.1812 4.28486 11.1932 4.23615 11.2151C4.18744 11.237 4.14361 11.2685 4.10726 11.3076C4.07091 11.3468 4.04277 11.3928 4.0245 11.443C4.00623 11.4932 3.9982 11.5466 4.00088 11.5999C4.00729 11.7133 4.04928 11.8218 4.12088 11.9099L5.12088 13.1099L4.00088 14.3999C3.9223 14.4918 3.87967 14.609 3.88088 14.7299C3.88085 14.8317 3.92056 14.9294 3.99155 15.0022C4.06254 15.0751 4.15919 15.1173 4.26088 15.1199C4.34472 15.1207 4.42736 15.1 4.50089 15.0597C4.57443 15.0195 4.6364 14.961 4.68088 14.8899L5.58088 13.7199L6.49088 14.9099C6.53152 14.9763 6.58902 15.0307 6.65753 15.0676C6.72604 15.1045 6.80311 15.1225 6.88088 15.1199C6.93641 15.1213 6.99164 15.1114 7.04322 15.0908C7.0948 15.0701 7.14165 15.0392 7.18092 15C7.2202 14.9607 7.25109 14.9138 7.27171 14.8623C7.29233 14.8107 7.30226 14.7555 7.30088 14.6999C7.29375 14.5819 7.24808 14.4695 7.17088 14.3799L6.15088 13.0999Z" fill="#10AC84"/>
<path d="M10.4691 14.3098H8.88906V11.5998C8.89043 11.5443 8.88051 11.4891 8.85989 11.4375C8.83927 11.3859 8.80838 11.3391 8.7691 11.2998C8.72982 11.2605 8.68298 11.2296 8.6314 11.209C8.57982 11.1884 8.52459 11.1784 8.46906 11.1798C8.41307 11.1785 8.35738 11.1884 8.30526 11.2089C8.25315 11.2294 8.20566 11.2601 8.16559 11.2992C8.12553 11.3384 8.09369 11.3851 8.07196 11.4367C8.05023 11.4884 8.03905 11.5438 8.03906 11.5998V14.6598C8.03906 14.7739 8.08437 14.8832 8.16501 14.9639C8.24565 15.0445 8.35502 15.0898 8.46906 15.0898H10.4691C10.5725 15.0898 10.6717 15.0487 10.7448 14.9756C10.818 14.9024 10.8591 14.8032 10.8591 14.6998C10.8604 14.6482 10.8513 14.5969 10.8322 14.549C10.8131 14.501 10.7844 14.4575 10.7479 14.421C10.7114 14.3845 10.6679 14.3558 10.6199 14.3367C10.572 14.3176 10.5207 14.3084 10.4691 14.3098Z" fill="#10AC84"/>
<path d="M12.9995 12.7602C12.3295 12.5902 12.1695 12.5102 12.1695 12.2602C12.1695 12.0802 12.3395 11.9302 12.6695 11.9302C12.9583 11.9407 13.2386 12.0307 13.4795 12.1902C13.5455 12.2312 13.6219 12.252 13.6995 12.2502C13.7524 12.2516 13.8051 12.2422 13.8542 12.2226C13.9034 12.203 13.948 12.1736 13.9854 12.1361C14.0229 12.0987 14.0523 12.0541 14.0719 12.0049C14.0915 11.9558 14.1009 11.9031 14.0995 11.8502C14.1126 11.7882 14.1103 11.7238 14.0929 11.6629C14.0754 11.6019 14.0434 11.546 13.9995 11.5002C13.6315 11.2681 13.2046 11.1466 12.7695 11.1502C12.6021 11.1308 12.4324 11.1463 12.2713 11.1957C12.1101 11.2451 11.9609 11.3273 11.8332 11.4372C11.7054 11.5472 11.6018 11.6824 11.5289 11.8344C11.4559 11.9863 11.4153 12.1518 11.4095 12.3202C11.4095 13.0902 11.9095 13.3202 12.6995 13.5102C13.3395 13.6702 13.4795 13.7802 13.4795 14.0002C13.4795 14.2302 13.2695 14.3702 12.9195 14.3702C12.5568 14.3667 12.2053 14.2437 11.9195 14.0202C11.8463 13.9688 11.7591 13.9408 11.6695 13.9402C11.6175 13.9389 11.5657 13.948 11.5172 13.967C11.4687 13.986 11.4246 14.0145 11.3873 14.0509C11.35 14.0872 11.3204 14.1307 11.3001 14.1786C11.2799 14.2266 11.2695 14.2782 11.2695 14.3302C11.2695 14.3938 11.2839 14.4565 11.3116 14.5136C11.3393 14.5708 11.3796 14.6209 11.4295 14.6602C11.857 14.9606 12.367 15.1213 12.8895 15.1202C13.7295 15.1202 14.3095 14.6902 14.3095 13.9202C14.2695 13.2502 13.8295 13.0002 12.9995 12.7602Z" fill="#10AC84"/>
</g>
<defs>
<clipPath id="clip0">
<rect width="18" height="20" fill="white"/>
</clipPath>
</defs>
</svg>
