<svg width="8" height="6" viewBox="0 0 8 6" fill="none" xmlns="http://www.w3.org/2000/svg">
<path d="M1.07612 4.38279C1.15186 4.56547 1.28007 4.7216 1.44454 4.83142C1.60901 4.94124 1.80235 4.99984 2.00012 4.99979H6.00012C6.19787 4.99974 6.39116 4.94107 6.55557 4.83119C6.71998 4.7213 6.84812 4.56514 6.92379 4.38244C6.99946 4.19974 7.01927 3.99871 6.9807 3.80475C6.94213 3.6108 6.84693 3.43264 6.70712 3.29279L4.70712 1.29279C4.51959 1.10532 4.26528 1 4.00012 1C3.73495 1 3.48064 1.10532 3.29312 1.29279L1.29312 3.29279C1.15318 3.43263 1.05787 3.61084 1.01925 3.80486C0.98062 3.99889 1.00041 4.20001 1.07612 4.38279Z" fill="#10AC84"/>
<path d="M0.614174 4.57412L0.614242 4.57429C0.727858 4.84832 0.920176 5.0825 1.16688 5.24724C1.41355 5.41195 1.70351 5.49984 2.00012 5.49979C2.00016 5.49979 2.0002 5.49979 2.00024 5.49979H6.00012H6.00022C6.29685 5.49972 6.58679 5.41172 6.83341 5.24689C7.08002 5.08206 7.27223 4.84782 7.38574 4.57377C7.49925 4.29972 7.52895 3.99817 7.4711 3.70724C7.41325 3.41631 7.27044 3.14906 7.06072 2.93929L7.06067 2.93923L5.06067 0.939233L5.06062 0.93918C4.77932 0.657973 4.39786 0.5 4.00012 0.5C3.60237 0.5 3.22091 0.657973 2.93962 0.93918L2.93956 0.939233L0.939673 2.93912C0.939636 2.93916 0.939599 2.9392 0.939563 2.93923C0.729724 3.14898 0.586801 3.41625 0.52887 3.70724C0.47093 3.99828 0.500616 4.29996 0.614174 4.57412Z" stroke="white" stroke-opacity="0.5"/>
</svg>
